<?xml version="1.0" encoding="utf-8"?>
<!-- Generated by IcoMoon.io -->
<svg version="1.1" xmlns="http://www.w3.org/2000/svg" xmlns:xlink="http://www.w3.org/1999/xlink" width="752" height="32" viewBox="0 0 752 32">
<svg id="icomoon-lm_close" width="32" height="32" viewBox="0 0 32 32" x="0" y="0">
<path d="M0.16 0.097v3.674l28.306 28.306h3.521v-3.625l-28.354-28.354h-3.472z"></path>
<path d="M28.354 0.097l-28.194 28.201v3.778h3.361l28.465-28.458v-3.521h-3.632z"></path>
</svg>
<svg id="icomoon-lm_dock" width="32" height="32" viewBox="0 0 32 32" x="48" y="0">
<path d="M14.222 17.778h3.556v14.222h-3.556z"></path>
<path d="M8.878 0.004v9.948l-4.593 9.606h23.438l-4.619-9.606v-9.948zM12.448 3.548h7.113v7.218l2.493 5.223h-12.1l2.493-5.223z"></path>
</svg>
<svg id="icomoon-lm_maximise" width="32" height="32" viewBox="0 0 32 32" x="96" y="0">
<path d="M0 0v32h32v-32zM3.368 6.896h25.264v21.792h-25.264z"></path>
</svg>
<svg id="icomoon-lm_minimize" width="32" height="32" viewBox="0 0 32 32" x="144" y="0">
<path d="M0.112 23.245h31.888v8.755h-31.888v-8.755z"></path>
</svg>
<svg id="icomoon-lm_popout" width="32" height="32" viewBox="0 0 32 32" x="192" y="0">
<path d="M7.854 0v7.854h-7.854v24.146h24.146v-7.854h7.854v-24.146h-24.146zM10.396 5.201h19.063v16.444h-5.313v-13.792h-13.75v-2.653zM2.542 13.063h19.063v16.438h-19.063v-16.438z"></path>
</svg>
</svg>
